# xmcd
#
# Track frame offsets:
#	150
#	15045
#	29703
#	50380
#	67922
#	86328
#	101642
#	119811
#	138342
#	157781
#	173429
#	185650
#	203039
#	220987
#	235255
#	248354
#	264503
#	279024
#	297820
#	312382
#	331401
#	346422
#
# Disc length: 4783 seconds
#
# Revision: 0
# Processed by: cddbd v1.5.2PL0 Copyright (c) Steve Scherf et al.
# Submitted via: EZCDAudioConverter 2.4.0.1
#
DISCID=2d12ad16
DTITLE=(Sertanejo) Sertanejos Românticos - Vol. 06
DYEAR=2004
DGENRE=Sertanejo
TTITLE0=Bruno and Marrone - Não Posso Ter Medo de Amar (Ao Vivo)
TTITLE1=Leonardo - Todas As Coisas Do Mundo
TTITLE2=Daniel - Seus Beijos
TTITLE3=João Paulo and Daniel - Hoje Eu Sei
TTITLE4=Rionegro and Solimões - Lenha
TTITLE5=Zezé Di Camargo and Luciano - É O Amor
TTITLE6=Leandro and Leonardo - Rumo à Goiânia
TTITLE7=Cleiton and Camargo - Pense Com Coração
TTITLE8=Gian and Gionvani - Quem Será
TTITLE9=Rionegro and Solimões - Vida De Cão
TTITLE10=Sula Miranda - Seu Olhar
TTITLE11=Chitãozinho and Xororó - Cowboy Do Asfalto
TTITLE12=Sérgio Reis - Filho Adotivo
TTITLE13=Ronaldo Viola - Se Ela Me Soltar Agora
TTITLE14=Gilberto and Gilmar - Música Da Saudade
TTITLE15=Duduca and Dalvan - Rastros Na Areia
TTITLE16=Chico Rey and Paraná - Tranque A Porta E Me Beija
TTITLE17=Rick and Renner - Cara De Pau
TTITLE18=Edson and Hudson - É Amor Demais
TTITLE19=Chrystian and Ralf - Um Cantinho Do Seu Coração
TTITLE20=Cézar and Paulinho - Morto De Saudade Sua
TTITLE21=Chitãozinho and Xororó - Amante Amada
EXTD=
EXTT0=
EXTT1=
EXTT2=
EXTT3=
EXTT4=
EXTT5=
EXTT6=
EXTT7=
EXTT8=
EXTT9=
EXTT10=
EXTT11=
EXTT12=
EXTT13=
EXTT14=
EXTT15=
EXTT16=
EXTT17=
EXTT18=
EXTT19=
EXTT20=
EXTT21=
PLAYORDER=
